<?xml version="1.0" encoding="UTF-8" standalone="no"?>
<!-- Created with Inkscape (http://www.inkscape.org/) -->

<svg
   width="240mm"
   height="120mm"
   viewBox="0 0 240 120"
   version="1.1"
   id="svg8"
   inkscape:version="1.4 (e7c3feb100, 2024-10-09)"
   sodipodi:docname="l3_phi_n.svg"
   xmlns:inkscape="http://www.inkscape.org/namespaces/inkscape"
   xmlns:sodipodi="http://sodipodi.sourceforge.net/DTD/sodipodi-0.dtd"
   xmlns="http://www.w3.org/2000/svg"
   xmlns:svg="http://www.w3.org/2000/svg"
   xmlns:rdf="http://www.w3.org/1999/02/22-rdf-syntax-ns#"
   xmlns:cc="http://creativecommons.org/ns#"
   xmlns:dc="http://purl.org/dc/elements/1.1/">
  <defs
     id="defs2" />
  <sodipodi:namedview
     id="base"
     pagecolor="#ffffff"
     bordercolor="#666666"
     borderopacity="1.0"
     inkscape:pageopacity="0.0"
     inkscape:pageshadow="2"
     inkscape:zoom="0.99437388"
     inkscape:cx="450.53476"
     inkscape:cy="182.52692"
     inkscape:document-units="mm"
     inkscape:current-layer="layer1"
     showgrid="false"
     showborder="true"
     width="200mm"
     showguides="true"
     inkscape:guide-bbox="true"
     inkscape:window-width="1707"
     inkscape:window-height="888"
     inkscape:window-x="0"
     inkscape:window-y="0"
     inkscape:window-maximized="1"
     inkscape:showpageshadow="2"
     inkscape:pagecheckerboard="0"
     inkscape:deskcolor="#d1d1d1">
    <inkscape:grid
       type="xygrid"
       id="grid815"
       units="mm"
       spacingx="10"
       spacingy="10"
       empspacing="4"
       dotted="false"
       originx="0"
       originy="0" />
  </sodipodi:namedview>
  <metadata
     id="metadata5">
    <rdf:RDF>
      <cc:Work
         rdf:about="">
        <dc:format>image/svg+xml</dc:format>
        <dc:type
           rdf:resource="http://purl.org/dc/dcmitype/StillImage" />
        <dc:title />
      </cc:Work>
    </rdf:RDF>
  </metadata>
  <g
     inkscape:label="Layer 1"
     inkscape:groupmode="layer"
     id="layer1"
     transform="translate(0,-177)">
    <path
       style="fill:none;stroke:#000000;stroke-width:0.499999"
       d="M 50.289183,237.13416 H 190.7796"
       id="path1" />
    <path
       style="fill:none;stroke:#000000;stroke-width:0.499999"
       d="M 119.73615,187.11106 V 288.22158"
       id="path2" />
    <text
       xml:space="preserve"
       style="font-size:4.9389px;text-align:start;writing-mode:lr-tb;direction:ltr;text-anchor:start;fill:none;stroke:#000000;stroke-width:0.499999"
       x="124.25951"
       y="187.64322"
       id="text2"><tspan
         sodipodi:role="line"
         id="tspan2"
         style="stroke-width:0.5"
         x="124.25951"
         y="187.64322">$\Phi_n(t)$</tspan></text>
    <text
       xml:space="preserve"
       style="font-size:4.9389px;text-align:start;writing-mode:lr-tb;direction:ltr;text-anchor:start;fill:none;stroke:#000000;stroke-width:0.499999"
       x="187.85271"
       y="243.52008"
       id="text3"><tspan
         sodipodi:role="line"
         id="tspan3"
         style="stroke-width:0.5"
         x="187.85271"
         y="243.52008">$t$</tspan></text>
    <path
       style="fill:none;stroke:#000000;stroke-width:0.499999"
       d="m 119.47007,196.95602 c 12.23969,0 5.32161,40.17813 11.17538,40.17813 5.85376,0 2.85233,-20.12564 9.40857,-20.12564 6.55624,0 2.18714,20.03443 9.95938,20.03443 7.77223,0 5.37751,-12.14848 10.69912,-12.14848 5.3216,0 3.77918,12.0815 9.33984,12.0815 5.56065,0 4.14684,-5.34259 9.64319,-5.34259 5.49635,0 5.49636,5.76686 5.49636,5.76686"
       id="path3"
       sodipodi:nodetypes="cssssssc" />
    <path
       style="fill:none;stroke:#000000;stroke-width:0.499999"
       d="m 119.98615,196.95602 c -12.23969,0 -5.32161,40.17813 -11.17538,40.17813 -5.85376,0 -2.85233,-20.12564 -9.408572,-20.12564 -6.55624,0 -2.18714,20.03443 -9.95938,20.03443 -7.77223,0 -5.37751,-12.14848 -10.69912,-12.14848 -5.3216,0 -3.77918,12.0815 -9.33984,12.0815 -5.56065,0 -4.14684,-5.34259 -9.64319,-5.34259 -5.49635,0 -5.49636,5.76686 -5.49636,5.76686"
       id="path4"
       sodipodi:nodetypes="cssssssc" />
  </g>
</svg>
